<?xml version="1.0" encoding="utf-8"?>
<!-- Generator: Adobe Illustrator 19.0.0, SVG Export Plug-In . SVG Version: 6.00 Build 0)  -->
<svg version="1.1" id="Layer_1" xmlns="http://www.w3.org/2000/svg" xmlns:xlink="http://www.w3.org/1999/xlink" x="0px" y="0px"
	 viewBox="0 0 120 110" style="enable-background:new 0 0 120 110;" xml:space="preserve">
<style type="text/css">
	.st0{fill:#9B1C21;stroke:#9B1C21;stroke-miterlimit:10;}
	.st1{fill:#ED1C24;}
</style>
<path id="XMLID_71_" class="st0" d="M54.9,80.3c-2.1,0.5-5.3,1.7-5.3,3.4s2.7,4.9,7.9,4.9s6.2-2.8,6.2-3.6c-2.9,0.6-6.4,1-8.3-1.1
	S54.3,80.7,54.9,80.3z"/>
<g id="XMLID_76_">
	<path id="XMLID_69_" class="st0" d="M43.2,56.6c3,0,7.7,2.9,7.7,8c0,5.1-3.3,7.1-6,7.1c-2.7,0-7.1-4.7-7.1-8.8S40.3,56.6,43.2,56.6
		z"/>
	<path id="XMLID_70_" class="st0" d="M75.6,57.3c3.7,0,5.5,3,5.5,5.6c0,2.6-2.3,8.8-7.2,8.8S68,67.6,68,65.6S69.6,57.3,75.6,57.3z"
		/>
	<path id="XMLID_74_" class="st0" d="M42.7,27.5c1.9,0,1.5,1.9,1.5,2.7c0,0.8-3.9,8.3-8.6,8.3s-0.7-5.8,0.3-6.9S41,27.5,42.7,27.5z"
		/>
	<path id="XMLID_75_" class="st0" d="M60.7,20.4c2.9,0,6.7,1,6.7,2.3c0,1.2-3.2,2.6-6.4,2.6s-7.1-0.8-7.1-2.3
		C53.8,21.5,56.6,20.4,60.7,20.4z"/>
	<path id="XMLID_78_" class="st0" d="M93.3,47.3c-0.8,0-2,3.8-2,6.9s1.4,6.9,2,6.9c0.6,0,1.9-5.3,1.9-7.4
		C95.2,51.5,94.7,47.3,93.3,47.3z"/>
</g>
<path id="XMLID_72_" class="st0" d="M67.4,31.8c0.1,1.9,1,4,2.8,4.7s2.6,1.5,5.5,0.6s2,5.5,2,5.5l-5.9,4.6c0,0-4.2-0.1-4.7-1.6
	s-1.9-3.5-3.5-3.7c-1.7-0.2-3.6-2-3.6-2l2.7-8.9L67.4,31.8z"/>
<path id="XMLID_73_" class="st0" d="M79.1,81.7c1,0,5.3-3.6,5.2-6.1c-0.1-2.5,4.6-3.9,4.6-3.9l1.5,1.7l-2.4,4.6l-6.9,6.6l-4.6,0.8
	v-1.9l0.6-1.6L79.1,81.7z"/>
<path id="XMLID_68_" class="st0" d="M26.1,60.6c-0.6-1.9-0.6-5.6,1.7-4.6s4.1-4.5,4.1-4.5l-3.4-8.9l-2.9,1.7l-1.8,9.9l0.6,6.4
	l0.6,1.3L26.1,60.6z"/>
<g id="XMLID_77_">
	<path id="XMLID_95_" class="st1" d="M60.3,18c-20.4,0-37,16.6-37,37c0,20.4,16.6,37,37,37c20.4,0,37-16.6,37-37
		C97.3,34.6,80.8,18,60.3,18z M60.7,20.4c2.9,0,6.7,1,6.7,2.3c0,1.2-3.2,2.6-6.4,2.6c-3.2,0-7.1-0.8-7.1-2.3
		C53.8,21.5,56.6,20.4,60.7,20.4z M28.8,52.5c-0.4,3-1.4,6.8-2.3,6.8c-0.8,0-1.6-5-1.5-6.8s0.4-6.8,1.8-6.8
		C27.9,45.6,29.2,49.5,28.8,52.5z M35.9,31.5c0.9-1,5.1-4.1,6.8-4.1c1.9,0,1.5,1.9,1.5,2.7c0,0.8-3.9,8.3-8.6,8.3S35,32.6,35.9,31.5
		z M45,71.7c-2.7,0-7.1-4.7-7.1-8.8s2.5-6.3,5.4-6.3c3,0,7.7,2.9,7.7,8C51,69.7,47.7,71.7,45,71.7z M54.9,86.1l-2.3-2.5l0.8-2.7
		l1.4-0.7c1.9,0,8.8,1,8.8,4.7S54.9,86.1,54.9,86.1z M62.4,38.4c0-6.4,6.1-5.9,6.1-5.9c4,0,8.1,2.8,8.1,7.8c0,5-5,5.8-6.1,5.8
		C69.4,46.1,62.4,44.8,62.4,38.4z M68,65.6c0-2,1.7-8.3,7.7-8.3c3.7,0,5.5,3,5.5,5.6c0,2.6-2.3,8.8-7.2,8.8S68,67.6,68,65.6z
		 M85.8,78.7c-1.4,1.5-5.6,5-7.2,4.7c-1.9-0.4,1.2-3.6,2.2-5.1c1-1.4,4.7-4.4,5.9-4.4C87.9,73.9,87.2,77.2,85.8,78.7z M93.3,61
		c-0.6,0-2-3.8-2-6.9c0-3.1,1.2-6.9,2-6.9c1.3,0,1.9,4.2,1.9,6.4C95.2,55.7,93.9,61,93.3,61z"/>
</g>
</svg>
