<?xml version="1.0" encoding="utf-8"?>
<!-- Generator: Adobe Illustrator 19.0.0, SVG Export Plug-In . SVG Version: 6.00 Build 0)  -->
<svg version="1.1" id="Layer_1" xmlns="http://www.w3.org/2000/svg" xmlns:xlink="http://www.w3.org/1999/xlink" x="0px" y="0px"
	 viewBox="-264 271 120 110" style="enable-background:new -264 271 120 110;" xml:space="preserve">
<style type="text/css">
	.st0{fill:#262262;stroke:#262262;stroke-miterlimit:10;}
	.st1{fill:#0A67B2;}
</style>
<path id="XMLID_71_" class="st0" d="M-209.1,351.4c-2.1,0.5-5.4,1.7-5.4,3.3c0,1.7,2.7,4.9,7.9,4.9s6.2-2.7,6.2-3.6
	c-2.9,0.6-6.3,1-8.4-1.1C-210.7,352.8-209.7,351.7-209.1,351.4z"/>
<g id="XMLID_76_">
	<path id="XMLID_69_" class="st0" d="M-220.8,327.6c3,0,7.8,2.9,7.8,8s-3.3,7.1-6,7.1c-2.6,0-7.1-4.8-7.1-8.7
		S-223.7,327.6-220.8,327.6z"/>
	<path id="XMLID_70_" class="st0" d="M-188.4,328.3c3.7,0,5.6,3,5.6,5.6c0,2.6-2.3,8.8-7.2,8.8c-4.9,0-6-4.1-6-6.2
		C-196,334.5-194.4,328.3-188.4,328.3z"/>
	<path id="XMLID_74_" class="st0" d="M-221.3,298.5c1.8,0,1.5,1.9,1.5,2.6c0,0.8-3.9,8.3-8.6,8.3s-0.7-5.8,0.3-6.9
		C-227.2,301.5-223,298.5-221.3,298.5z"/>
	<path id="XMLID_75_" class="st0" d="M-203.3,291.4c2.9,0,6.7,1.1,6.7,2.3c0,1.2-3.3,2.6-6.4,2.6c-3.2,0-7.1-0.8-7.1-2.3
		S-207.5,291.4-203.3,291.4z"/>
	<path id="XMLID_78_" class="st0" d="M-170.7,318.2c-0.8,0-2,3.8-2,6.9s1.4,6.9,2,6.9c0.6,0,1.8-5.3,1.8-7.4
		S-169.3,318.2-170.7,318.2z"/>
</g>
<path id="XMLID_72_" class="st0" d="M-196.7,302.8c0.1,1.9,1.1,4,2.8,4.7c1.8,0.7,2.6,1.6,5.6,0.6c2.9-1,2,5.5,2,5.5l-5.9,4.7
	c0,0-4.2-0.1-4.7-1.6s-1.8-3.5-3.5-3.7c-1.7-0.2-3.6-2.1-3.6-2.1l2.7-8.9L-196.7,302.8z"/>
<path id="XMLID_73_" class="st0" d="M-184.9,352.7c1.1,0,5.4-3.6,5.2-6.1c-0.2-2.5,4.7-3.9,4.7-3.9l1.5,1.7l-2.4,4.5l-7,6.5
	l-4.6,0.8v-1.9l0.6-1.7H-184.9z"/>
<path id="XMLID_68_" class="st0" d="M-237.9,331.5c-0.5-1.9-0.5-5.5,1.7-4.7c2.2,0.9,4.1-4.5,4.1-4.5l-3.4-8.9l-2.9,1.7l-1.8,9.9
	l0.6,6.4l0.6,1.2L-237.9,331.5z"/>
<g id="XMLID_77_">
	<path id="XMLID_95_" class="st1" d="M-203.7,289c-20.4,0-37,16.6-37,37s16.6,37,37,37s37-16.6,37-37S-183.3,289-203.7,289z
		 M-203.3,291.4c2.9,0,6.7,1.1,6.7,2.3c0,1.2-3.3,2.6-6.4,2.6s-7.1-0.8-7.1-2.3S-207.5,291.4-203.3,291.4z M-235.2,323.5
		c-0.4,3.1-1.4,6.8-2.3,6.8c-0.9,0-1.6-4.9-1.5-6.9c0.1-1.9,0.4-6.9,1.8-6.9C-236.1,316.7-234.8,320.5-235.2,323.5z M-228.1,302.6
		c0.9-1.1,5.1-4.1,6.9-4.1c1.9,0,1.5,1.9,1.5,2.6c0,0.8-3.9,8.3-8.6,8.3S-229.1,303.5-228.1,302.6z M-219,342.6
		c-2.7,0-7.1-4.8-7.1-8.7c0-4,2.5-6.3,5.4-6.3c3,0,7.8,2.9,7.8,8S-216.4,342.6-219,342.6z M-209.1,357.1l-2.3-2.5l0.9-2.6l1.4-0.7
		c1.8,0,8.7,1,8.7,4.7C-200.4,359.7-209.1,357.1-209.1,357.1z M-201.7,309.4c0-6.4,6.1-6,6.1-6c4,0,8.2,2.8,8.2,7.8
		c0,5-5,5.8-6.1,5.8C-194.6,317.1-201.7,315.8-201.7,309.4z M-196,336.6c0-2,1.7-8.3,7.7-8.3c3.7,0,5.6,3,5.6,5.6
		c0,2.6-2.3,8.8-7.2,8.8C-195,342.7-196,338.6-196,336.6z M-178.2,349.7c-1.3,1.5-5.6,5-7.2,4.7c-1.9-0.4,1.2-3.6,2.2-5.1
		c1-1.5,4.7-4.4,5.9-4.4C-176,344.9-176.8,348.3-178.2,349.7z M-170.7,332c-0.5,0-2-3.8-2-6.9s1.1-6.9,2-6.9c1.3,0,1.8,4.2,1.8,6.3
		S-170.1,332-170.7,332z"/>
</g>
</svg>
