<?xml version="1.0" encoding="utf-8"?>
<!-- Generator: Adobe Illustrator 19.0.0, SVG Export Plug-In . SVG Version: 6.00 Build 0)  -->
<svg version="1.1" id="Layer_1" xmlns="http://www.w3.org/2000/svg" xmlns:xlink="http://www.w3.org/1999/xlink" x="0px" y="0px"
	 viewBox="10 -5 120 110" style="enable-background:new 10 -5 120 110;" xml:space="preserve">
<style type="text/css">
	.st0{fill:#636363;stroke:#636363;stroke-miterlimit:10;}
	.st1{fill:#C4C4C4;}
</style>
<path id="XMLID_71_" class="st0" d="M64.9,75.3c-2.1,0.5-5.3,1.7-5.3,3.4s2.7,4.9,7.9,4.9c5.2,0,6.2-2.8,6.2-3.6
	c-2.9,0.6-6.4,1-8.3-1.1C63.5,76.8,64.3,75.7,64.9,75.3z"/>
<g id="XMLID_76_">
	<path id="XMLID_69_" class="st0" d="M53.2,51.6c3,0,7.7,2.9,7.7,8s-3.3,7.1-6,7.1s-7.1-4.7-7.1-8.8S50.3,51.6,53.2,51.6z"/>
	<path id="XMLID_70_" class="st0" d="M85.6,52.3c3.7,0,5.5,3,5.5,5.6c0,2.6-2.3,8.8-7.2,8.8S78,62.6,78,60.6S79.6,52.3,85.6,52.3z"
		/>
	<path id="XMLID_74_" class="st0" d="M52.7,22.5c1.9,0,1.5,1.9,1.5,2.7c0,0.8-3.9,8.3-8.6,8.3s-0.7-5.8,0.3-6.9S51,22.5,52.7,22.5z"
		/>
	<path id="XMLID_75_" class="st0" d="M70.7,15.4c2.9,0,6.7,1,6.7,2.3c0,1.2-3.2,2.6-6.4,2.6s-7.1-0.8-7.1-2.3
		C63.8,16.5,66.6,15.4,70.7,15.4z"/>
	<path id="XMLID_78_" class="st0" d="M103.3,42.3c-0.8,0-2,3.8-2,6.9s1.4,6.9,2,6.9s1.9-5.3,1.9-7.4
		C105.2,46.5,104.7,42.3,103.3,42.3z"/>
</g>
<path id="XMLID_72_" class="st0" d="M77.4,26.8c0.1,1.9,1,4,2.8,4.7s2.6,1.5,5.5,0.6s2,5.5,2,5.5l-5.9,4.6c0,0-4.2-0.1-4.7-1.6
	s-1.9-3.5-3.5-3.7c-1.7-0.2-3.6-2-3.6-2l2.7-8.9L77.4,26.8z"/>
<path id="XMLID_73_" class="st0" d="M89.1,76.7c1,0,5.3-3.6,5.2-6.1c-0.1-2.5,4.6-3.9,4.6-3.9l1.5,1.7L98,73l-6.9,6.6l-4.6,0.8v-1.9
	l0.6-1.6L89.1,76.7z"/>
<path id="XMLID_68_" class="st0" d="M36.1,55.6c-0.6-1.9-0.6-5.6,1.7-4.6c2.3,1,4.1-4.5,4.1-4.5l-3.4-8.9l-2.9,1.7l-1.8,9.9l0.6,6.4
	l0.6,1.3L36.1,55.6z"/>
<g id="XMLID_77_">
	<path id="XMLID_95_" class="st1" d="M70.3,13c-20.4,0-37,16.6-37,37s16.6,37,37,37s37-16.6,37-37S90.8,13,70.3,13z M70.7,15.4
		c2.9,0,6.7,1,6.7,2.3c0,1.2-3.2,2.6-6.4,2.6c-3.2,0-7.1-0.8-7.1-2.3C63.8,16.5,66.6,15.4,70.7,15.4z M38.8,47.5
		c-0.4,3-1.4,6.8-2.3,6.8c-0.8,0-1.6-5-1.5-6.8s0.4-6.8,1.8-6.8C37.9,40.6,39.2,44.5,38.8,47.5z M45.9,26.5c0.9-1,5.1-4.1,6.8-4.1
		c1.9,0,1.5,1.9,1.5,2.7c0,0.8-3.9,8.3-8.6,8.3S45,27.6,45.9,26.5z M55,66.7c-2.7,0-7.1-4.7-7.1-8.8s2.5-6.3,5.4-6.3
		c3,0,7.7,2.9,7.7,8C61,64.7,57.7,66.7,55,66.7z M64.9,81.1l-2.3-2.5l0.8-2.7l1.4-0.7c1.9,0,8.8,1,8.8,4.7S64.9,81.1,64.9,81.1z
		 M72.4,33.4c0-6.4,6.1-5.9,6.1-5.9c4,0,8.1,2.8,8.1,7.8s-5,5.8-6.1,5.8S72.4,39.8,72.4,33.4z M78,60.6c0-2,1.7-8.3,7.7-8.3
		c3.7,0,5.5,3,5.5,5.6c0,2.6-2.3,8.8-7.2,8.8S78,62.6,78,60.6z M95.8,73.7c-1.4,1.5-5.6,5-7.2,4.7c-1.9-0.4,1.2-3.6,2.2-5.1
		c1-1.4,4.7-4.4,5.9-4.4C97.9,68.9,97.2,72.2,95.8,73.7z M103.3,56c-0.6,0-2-3.8-2-6.9c0-3.1,1.2-6.9,2-6.9c1.3,0,1.9,4.2,1.9,6.4
		C105.2,50.7,103.9,56,103.3,56z"/>
</g>
</svg>
